# xmcd CD database file
#
# Track frame offsets:
#	150
#	23676
#	65066
#	75346
#	93013
#	117774
#	134159
#	153269
#	185367
#	237887
#	269971
#	282894
#	311311
#
# Disc length: 4492 seconds
#
# Revision: 0
# Processed by: cddbd v1.5.1PL0 Copyright (c) Steve Scherf et al.
# Submitted via: CDex 1.51
#
DISCID=aa118a0d
DTITLE=DJ Spooky That Subliminal kid vs. Matthew Shipp - Optometry
DYEAR=2004
DGENRE=Jazz
TTITLE0=Ibid, Demarchez, Ibid
TTITLE1=Reactive Switching Strategies For The Control Of Uninhabited Air
TTITLE2=Variation Cybernetique: Rhythmic Pataphysic - (Part 1)
TTITLE3=Asphalt (Tome 2)
TTITLE4=Optometry
TTITLE5=Sequentia Absentia (Dialectical Triangulation 1)
TTITLE6=Rosemary
TTITLE7=Dementia Absentia (Dialectical Triangulation 2)
TTITLE8=Parachutes
TTITLE9=Absentia Absentia (Dialectical Triagulation 3)
TTITLE10=Variation Cybernetique: Rhythmic Pataphysic (Part 2)
TTITLE11=Periphique
TTITLE12=It's A Mad, Mad, Mad, World
EXTD=YEAR: 2004
EXTT0=
EXTT1=
EXTT2=
EXTT3=
EXTT4=
EXTT5=
EXTT6=
EXTT7=
EXTT8=
EXTT9=
EXTT10=
EXTT11=
EXTT12=
PLAYORDER=
